<svg width="208" height="34" viewBox="0 0 208 34" fill="none" xmlns="http://www.w3.org/2000/svg">
<g clip-path="url(#clip0_682_168)">
<path d="M61.3714 25.8314C58.6033 25.8314 56.3594 23.6018 56.3594 20.8514V0.374368C56.3594 0.16761 56.5281 0 56.7361 0H60.8342C61.1309 0 61.3714 0.238987 61.3714 0.533792V25.8314Z" fill="white"/>
<path fill-rule="evenodd" clip-rule="evenodd" d="M83.1832 25.2976C83.1832 25.5924 82.9427 25.8314 82.646 25.8314H78.7445C78.4478 25.8314 78.2073 25.5924 78.2073 25.2976V23.9326C77.7385 24.6491 76.9813 25.1865 75.9717 25.5806C74.9981 25.9747 74.0967 26.1538 73.3034 26.1538C71.0318 26.1538 69.0486 25.3656 67.3179 23.7534C65.5871 22.1412 64.7217 20.0274 64.7217 17.4478C64.7217 14.8683 65.5871 12.7903 67.3179 11.1781C69.0486 9.56585 71.0318 8.74182 73.3034 8.74182C74.89 8.74182 77.0534 9.35088 78.2073 10.9631V9.63389C78.2073 9.33908 78.4478 9.1001 78.7445 9.1001H82.646C82.9427 9.1001 83.1832 9.33908 83.1832 9.63389V25.2976ZM71.176 20.314C72.0414 21.0664 73.015 21.4247 74.1328 21.4247C76.2962 21.4247 78.2073 19.8483 78.2073 17.4478C78.2073 15.0474 76.2962 13.471 74.1328 13.471C73.015 13.471 72.0414 13.8651 71.176 14.6175C70.3467 15.3699 69.914 16.3014 69.914 17.4478C69.914 18.5943 70.3467 19.5616 71.176 20.314Z" fill="white"/>
<path d="M94.1522 19.4901C95.3421 19.8125 95.8108 20.2066 95.8108 20.9232C95.8108 21.7472 94.9094 22.2846 93.7556 22.3204C92.6483 22.3204 91.69 21.6787 91.3755 20.887C91.2694 20.6197 91.0384 20.3858 90.7492 20.3858H87.1284C86.8274 20.3858 86.5826 20.6321 86.6132 20.9296C86.7685 22.4388 87.4493 23.6838 88.7075 24.6134C90.1137 25.6524 91.7724 26.1539 93.6113 26.1539C95.5584 26.1539 97.2532 25.6882 98.6955 24.7925C100.174 23.8968 100.895 22.6071 100.895 20.9232C100.895 19.92 100.751 18.9885 99.2724 17.5912C98.5512 16.9105 97.5777 16.3731 96.3157 16.0507L93.4671 15.2983C92.5296 15.0475 92.0248 14.6534 91.9887 14.0444C91.9527 13.292 92.6378 12.7904 93.7556 12.7904C94.7751 12.7904 95.371 13.1177 95.5814 13.7535C95.6717 14.0263 95.8953 14.2593 96.1843 14.2593H99.8427C100.143 14.2593 100.388 14.0136 100.361 13.7161C100.214 12.0917 99.5384 10.8755 98.3349 10.0675C97.0007 9.17181 95.3782 8.70605 93.4671 8.70605C91.7003 8.70605 90.1859 9.20764 88.8878 10.175C87.5897 11.1424 86.9407 12.2172 86.9046 13.4711C86.8686 14.5101 86.9407 15.0833 87.4815 16.2298C88.0585 17.3405 89.6089 18.3078 91.9527 18.9169L94.1522 19.4901Z" fill="white"/>
<path d="M112.178 20.9232C112.178 20.2066 111.709 19.8125 110.519 19.4901L108.32 18.9169C105.976 18.3078 104.426 17.3405 103.849 16.2298C103.308 15.0833 103.236 14.5101 103.272 13.4711C103.308 12.2172 103.957 11.1424 105.255 10.175C106.553 9.20764 108.067 8.70605 109.834 8.70605C111.745 8.70605 113.368 9.17181 114.702 10.0675C115.906 10.8755 116.581 12.0917 116.728 13.7161C116.755 14.0136 116.511 14.2593 116.21 14.2593H112.551C112.263 14.2593 112.039 14.0263 111.949 13.7535C111.738 13.1177 111.142 12.7904 110.123 12.7904C109.005 12.7904 108.32 13.292 108.356 14.0444C108.392 14.6534 108.897 15.0475 109.834 15.2983L112.683 16.0507C113.945 16.3731 114.918 16.9105 115.64 17.5912C117.118 18.9885 117.262 19.92 117.262 20.9232C117.262 22.6071 116.541 23.8968 115.063 24.7925C113.62 25.6882 111.926 26.1539 109.978 26.1539C108.14 26.1539 106.481 25.6524 105.075 24.6134C103.817 23.6838 103.136 22.4388 102.98 20.9296C102.95 20.6321 103.195 20.3858 103.496 20.3858H107.116C107.406 20.3858 107.637 20.6197 107.743 20.887C108.057 21.6787 109.015 22.3204 110.123 22.3204C111.277 22.2846 112.178 21.7472 112.178 20.9232Z" fill="white"/>
<path d="M128.597 8.74182C126.109 8.74182 123.946 9.56585 122.143 11.1781C120.34 12.7903 119.438 14.8683 119.438 17.412C119.438 19.9557 120.34 22.0695 122.143 23.7176C123.946 25.3657 126.109 26.1897 128.597 26.1897C131.431 26.1897 133.981 25.0293 135.596 23.0313C135.782 22.8025 135.722 22.4701 135.481 22.3005L132.3 20.0628C132.05 19.8872 131.707 19.9572 131.508 20.1877C130.801 21.0049 129.831 21.4247 128.597 21.4247C127.479 21.4247 126.506 21.0664 125.676 20.314C124.847 19.5616 124.414 18.5943 124.414 17.412C124.414 16.2655 124.847 15.334 125.676 14.6175C126.506 13.8651 127.479 13.5068 128.597 13.5068C129.83 13.5068 130.799 13.9258 131.505 14.7413C131.706 14.9726 132.051 15.0419 132.301 14.8641L135.481 12.5992C135.722 12.4276 135.779 12.0934 135.591 11.8657C133.945 9.87116 131.397 8.74182 128.597 8.74182Z" fill="white"/>
<path fill-rule="evenodd" clip-rule="evenodd" d="M156.345 25.2619C156.345 25.5567 156.104 25.7957 155.807 25.7957H151.906C151.609 25.7957 151.369 25.5567 151.369 25.2619V23.8968C150.9 24.6134 150.143 25.1508 149.133 25.5449C148.16 25.939 147.258 26.1181 146.465 26.1181C144.193 26.1181 142.21 25.3299 140.479 23.7177C138.749 22.1055 137.883 19.9917 137.883 17.4121C137.883 14.8326 138.749 12.7546 140.479 11.1424C142.21 9.53008 144.193 8.70605 146.465 8.70605C148.051 8.70605 150.215 9.31512 151.369 10.9274V9.59812C151.369 9.30331 151.609 9.06433 151.906 9.06433H155.807C156.104 9.06433 156.345 9.30331 156.345 9.59812V25.2619ZM144.337 20.2783C145.203 21.0307 146.176 21.3889 147.294 21.3889C149.458 21.3889 151.369 19.8125 151.369 17.4121C151.369 15.0117 149.458 13.4353 147.294 13.4353C146.176 13.4353 145.203 13.8294 144.337 14.5818C143.508 15.3341 143.075 16.2656 143.075 17.4121C143.075 18.5586 143.508 19.5259 144.337 20.2783Z" fill="white"/>
<path d="M178.442 13.5785C180.029 13.5785 181.219 14.7966 181.219 16.9104V25.2976C181.219 25.5924 181.459 25.8314 181.756 25.8314H185.657C185.954 25.8314 186.195 25.5924 186.195 25.2976V16.3372C186.195 11.3572 183.779 8.74182 179.704 8.74182C177.577 8.74182 175.882 9.74498 174.656 11.7155C173.719 9.74498 171.916 8.77765 169.248 8.77765C167.373 8.77765 165.606 9.81664 164.848 11.5364V9.63389C164.848 9.33908 164.608 9.1001 164.311 9.1001H160.374C160.077 9.1001 159.836 9.33908 159.836 9.63389V25.2976C159.836 25.5924 160.077 25.8314 160.374 25.8314H164.311C164.608 25.8314 164.848 25.5924 164.848 25.2976V16.9821C164.848 14.5817 166.074 13.5785 167.769 13.5785C169.32 13.5785 170.51 14.7966 170.546 16.803V25.2976C170.546 25.5924 170.786 25.8314 171.083 25.8314H175.02C175.317 25.8314 175.558 25.5924 175.558 25.2976V16.9821C175.558 14.6891 176.711 13.5785 178.442 13.5785Z" fill="white"/>
<path fill-rule="evenodd" clip-rule="evenodd" d="M194.426 34.0001C191.713 34.0001 189.514 31.8149 189.514 29.1193V9.38402C189.514 9.20746 189.658 9.06433 189.836 9.06433H193.953C194.249 9.06433 194.49 9.30331 194.49 9.59812V11.1424C195.319 9.60173 197.266 8.70605 199.43 8.70605C201.665 8.70605 203.577 9.53008 205.163 11.1424C206.786 12.7546 207.579 14.8326 207.579 17.3763C207.579 19.9917 206.786 22.1055 205.163 23.7177C203.577 25.3299 201.665 26.1539 199.43 26.1539C197.266 26.1539 195.319 25.2224 194.49 23.7535V33.9367C194.49 33.9717 194.461 34.0001 194.426 34.0001ZM198.492 13.4353C196.329 13.4353 194.598 15.155 194.598 17.4838C194.598 19.92 196.329 21.4606 198.492 21.4606C200.656 21.4606 202.387 19.8125 202.387 17.4838C202.387 15.0833 200.656 13.4353 198.492 13.4353Z" fill="white"/>
<path d="M49.4973 18.3701C49.6817 18.1373 50.0171 18.0745 50.262 18.2436L53.3989 20.4096C53.6379 20.5746 53.7022 20.8998 53.5313 21.1339C51.4208 24.0239 47.9588 25.8059 43.9712 25.8059C40.6401 25.8059 37.853 24.6576 35.5756 22.3273C33.3321 19.9969 32.2104 17.1937 32.2104 13.8839C32.2104 10.5404 33.3321 7.73722 35.5756 5.40686C37.853 3.07651 40.6401 1.92822 43.9712 1.92822C47.8513 1.92822 51.3009 3.67027 53.4127 6.42756C53.5921 6.66174 53.529 6.99426 53.2852 7.16123L50.1258 9.32446C49.8808 9.49219 49.5464 9.42857 49.3638 9.19524C48.0034 7.4577 46.2059 6.58893 43.9712 6.58893C42.0337 6.58893 40.4362 7.29816 39.1446 8.71664C37.853 10.1013 37.2071 11.8238 37.2071 13.8839C37.2071 15.9103 37.853 17.6328 39.1446 19.0513C40.4362 20.436 42.0337 21.1452 43.9712 21.1452C46.1985 21.1452 48.1652 20.052 49.4973 18.3701Z" fill="white"/>
<path d="M22.1913 6.00009L20.8999 8.23689C21.66 8.67636 22.3221 8.92789 23.2633 8.92789V11.5127C21.8506 11.5127 20.7465 11.1349 19.6058 10.4749L20.8972 8.23809C18.6161 6.9186 15.9678 6.16341 13.143 6.16341C10.3177 6.16341 7.66877 6.91892 5.38734 8.23894L4.09473 6.00009C6.75639 4.46005 9.84677 3.57861 13.143 3.57861C16.4393 3.57861 19.5297 4.46005 22.1913 6.00009Z" fill="white"/>
<path d="M19.6061 10.4778C17.7049 9.37777 15.4975 8.74817 13.143 8.74817C10.7886 8.74817 8.58112 9.37777 6.67993 10.4778L7.97253 12.7167C9.49348 11.8367 11.2595 11.333 13.143 11.333C15.026 11.333 16.7914 11.8363 18.312 12.7158L17.0206 14.9527C18.9218 16.0527 20.9088 16.6823 23.2633 16.6823V14.0975C21.3803 14.0975 19.8353 13.5941 18.3147 12.7146L19.6061 10.4778Z" fill="white"/>
<path d="M13.1429 13.9178C14.5556 13.9178 15.8801 14.2956 17.0208 14.9556L15.7293 17.1924C18.0104 18.5119 20.4384 19.2671 23.2632 19.2671V21.8519C19.9669 21.8518 17.0969 20.9704 14.4353 19.4304L15.7267 17.1936C14.9665 16.7541 14.0841 16.5026 13.1429 16.5026C12.2012 16.5026 11.3182 16.7544 10.5577 17.1944L9.26514 14.9556C10.4058 14.2956 11.7303 13.9178 13.1429 13.9178Z" fill="white"/>
<path d="M8.52274 23.9985H8.52509C8.53096 24.0101 8.53686 24.0217 8.54281 24.0333L8.79339 24.4673C9.71324 25.8957 11.3176 26.8418 13.1429 26.8418H13.149L1.95422 7.4519C1.25999 7.99888 0.60679 8.59561 0 9.23669L8.52274 23.9985Z" fill="white"/>
</g>
<defs>
<clipPath id="clip0_682_168">
<rect width="208" height="34" fill="white"/>
</clipPath>
</defs>
</svg>
