<svg width="120" height="23" viewBox="0 0 120 23" fill="none" xmlns="http://www.w3.org/2000/svg">
<g clip-path="url(#clip0_682_243)">
<path d="M20.516 17.4742C18.6435 17.4742 17.1255 15.9659 17.1255 14.1054V0.253249C17.1255 0.113383 17.2396 0 17.3804 0H20.1526C20.3533 0 20.516 0.161668 20.516 0.361095V17.4742Z" fill="black"/>
<path fill-rule="evenodd" clip-rule="evenodd" d="M35.2709 17.1131C35.2709 17.3125 35.1082 17.4742 34.9075 17.4742H32.2682C32.0675 17.4742 31.9048 17.3125 31.9048 17.1131V16.1897C31.5877 16.6744 31.0755 17.0379 30.3925 17.3045C29.7339 17.5711 29.1241 17.6923 28.5875 17.6923C27.0508 17.6923 25.7093 17.1591 24.5385 16.0685C23.3677 14.9779 22.7822 13.5479 22.7822 11.803C22.7822 10.058 23.3677 8.65225 24.5385 7.56162C25.7093 6.471 27.0508 5.91357 28.5875 5.91357C29.6608 5.91357 31.1243 6.32559 31.9048 7.41621V6.51703C31.9048 6.3176 32.0675 6.15593 32.2682 6.15593H34.9075C35.1082 6.15593 35.2709 6.3176 35.2709 6.51703V17.1131ZM27.1484 13.7418C27.7338 14.2508 28.3924 14.4932 29.1485 14.4932C30.6121 14.4932 31.9048 13.4268 31.9048 11.803C31.9048 10.1791 30.6121 9.11273 29.1485 9.11273C28.3924 9.11273 27.7338 9.37933 27.1484 9.88828C26.5874 10.3973 26.2947 11.0274 26.2947 11.803C26.2947 12.5785 26.5874 13.2329 27.1484 13.7418Z" fill="black"/>
<path d="M42.691 13.1842C43.4959 13.4023 43.813 13.6689 43.813 14.1536C43.813 14.7111 43.2032 15.0746 42.4227 15.0989C41.6736 15.0989 41.0254 14.6648 40.8127 14.1292C40.7408 13.9483 40.5846 13.7901 40.389 13.7901H37.9396C37.736 13.7901 37.5704 13.9567 37.5911 14.158C37.6961 15.1789 38.1567 16.0211 39.0078 16.65C39.9591 17.3528 41.0811 17.6921 42.3251 17.6921C43.6423 17.6921 44.7887 17.377 45.7644 16.7711C46.7645 16.1652 47.2523 15.2927 47.2523 14.1536C47.2523 13.475 47.1547 12.8449 46.1547 11.8997C45.6668 11.4392 45.0082 11.0757 44.1545 10.8575L42.2276 10.3486C41.5934 10.1789 41.2519 9.91234 41.2275 9.50033C41.2031 8.99137 41.6665 8.65207 42.4227 8.65207C43.1124 8.65207 43.5155 8.8735 43.6578 9.30358C43.7189 9.48809 43.8702 9.64574 44.0657 9.64574H46.5405C46.7439 9.64574 46.9093 9.47955 46.891 9.27827C46.7915 8.17943 46.3346 7.35671 45.5205 6.81013C44.618 6.20423 43.5203 5.88916 42.2276 5.88916C41.0323 5.88916 40.0079 6.22846 39.1298 6.88283C38.2517 7.53721 37.8126 8.26429 37.7882 9.11255C37.7638 9.8154 37.8126 10.2032 38.1785 10.9787C38.5688 11.73 39.6176 12.3844 41.2031 12.7964L42.691 13.1842Z" fill="black"/>
<path d="M54.8851 14.1536C54.8851 13.6689 54.568 13.4023 53.7631 13.1842L52.2752 12.7964C50.6897 12.3844 49.6408 11.73 49.2506 10.9787C48.8847 10.2032 48.8359 9.8154 48.8603 9.11255C48.8847 8.26429 49.3237 7.53721 50.2019 6.88283C51.08 6.22846 52.1044 5.88916 53.2996 5.88916C54.5924 5.88916 55.69 6.20423 56.5925 6.81013C57.4067 7.35671 57.8635 8.17943 57.9631 9.27827C57.9813 9.47955 57.8159 9.64574 57.6125 9.64574H55.1377C54.9423 9.64574 54.791 9.48809 54.7299 9.30358C54.5876 8.8735 54.1844 8.65207 53.4948 8.65207C52.7386 8.65207 52.2752 8.99137 52.2996 9.50033C52.324 9.91234 52.6654 10.1789 53.2996 10.3486L55.2266 10.8575C56.0803 11.0757 56.7389 11.4392 57.2267 11.8997C58.2268 12.8449 58.3244 13.475 58.3244 14.1536C58.3244 15.2927 57.8365 16.1652 56.8365 16.7711C55.8608 17.377 54.7144 17.6921 53.3972 17.6921C52.1532 17.6921 51.0312 17.3528 50.0799 16.65C49.2288 16.0211 48.7682 15.1789 48.6631 14.158C48.6424 13.9567 48.8081 13.7901 49.0117 13.7901H51.461C51.6567 13.7901 51.8129 13.9483 51.8847 14.1292C52.0975 14.6648 52.7457 15.0989 53.4948 15.0989C54.2753 15.0746 54.8851 14.7111 54.8851 14.1536Z" fill="black"/>
<path d="M65.9919 5.91357C64.3089 5.91357 62.8454 6.471 61.6258 7.56162C60.4062 8.65225 59.7964 10.058 59.7964 11.7787C59.7964 13.4995 60.4062 14.9294 61.6258 16.0443C62.8454 17.1591 64.3089 17.7165 65.9919 17.7165C67.9089 17.7165 69.6338 16.9316 70.7269 15.58C70.8521 15.4252 70.8118 15.2003 70.6488 15.0856L68.4969 13.5719C68.328 13.4531 68.0956 13.5005 67.9609 13.6564C67.4832 14.2092 66.8269 14.4932 65.9919 14.4932C65.2358 14.4932 64.5772 14.2508 64.0162 13.7418C63.4552 13.2329 63.1625 12.5785 63.1625 11.7787C63.1625 11.0032 63.4552 10.373 64.0162 9.88828C64.5772 9.37933 65.2358 9.13697 65.9919 9.13697C66.826 9.13697 67.4819 9.42037 67.9594 9.97204C68.0949 10.1285 68.3286 10.1754 68.4974 10.0552L70.6486 8.52296C70.8116 8.40692 70.85 8.1808 70.723 8.02674C69.6099 6.67754 67.8864 5.91357 65.9919 5.91357Z" fill="black"/>
<path fill-rule="evenodd" clip-rule="evenodd" d="M84.7625 17.0887C84.7625 17.2881 84.5998 17.4497 84.3991 17.4497H81.7599C81.5592 17.4497 81.3964 17.2881 81.3964 17.0887V16.1652C81.0793 16.65 80.5671 17.0135 79.8841 17.2801C79.2256 17.5467 78.6158 17.6679 78.0791 17.6679C76.5425 17.6679 75.2009 17.1347 74.0301 16.0441C72.8593 14.9534 72.2739 13.5235 72.2739 11.7785C72.2739 10.0335 72.8593 8.62783 74.0301 7.53721C75.2009 6.44659 76.5425 5.88916 78.0791 5.88916C79.1524 5.88916 80.6159 6.30117 81.3964 7.39179V6.49261C81.3964 6.29319 81.5592 6.13152 81.7599 6.13152H84.3991C84.5998 6.13152 84.7625 6.29319 84.7625 6.49261V17.0887ZM76.64 13.7174C77.2254 14.2264 77.884 14.4687 78.6401 14.4687C80.1037 14.4687 81.3964 13.4023 81.3964 11.7785C81.3964 10.1547 80.1037 9.08831 78.6401 9.08831C77.884 9.08831 77.2254 9.35491 76.64 9.86387C76.079 10.3728 75.7863 11.003 75.7863 11.7785C75.7863 12.5541 76.079 13.2084 76.64 13.7174Z" fill="black"/>
<path d="M99.711 9.18544C100.784 9.18544 101.589 10.0095 101.589 11.4394V17.1131C101.589 17.3125 101.752 17.4742 101.952 17.4742H104.592C104.792 17.4742 104.955 17.3125 104.955 17.1131V11.0516C104.955 7.6828 103.321 5.91357 100.565 5.91357C99.1256 5.91357 97.9791 6.59218 97.1497 7.92516C96.5155 6.59218 95.2961 5.93781 93.4911 5.93781C92.2227 5.93781 91.0275 6.64066 90.5152 7.80399V6.51703C90.5152 6.3176 90.3525 6.15593 90.1518 6.15593H87.4882C87.2875 6.15593 87.1248 6.3176 87.1248 6.51703V17.1131C87.1248 17.3125 87.2875 17.4742 87.4882 17.4742H90.1518C90.3525 17.4742 90.5152 17.3125 90.5152 17.1131V11.4879C90.5152 9.86405 91.3446 9.18544 92.491 9.18544C93.5398 9.18544 94.3448 10.0095 94.3692 11.3667V17.1131C94.3692 17.3125 94.5319 17.4742 94.7326 17.4742H97.3962C97.5969 17.4742 97.7596 17.3125 97.7596 17.1131V11.4879C97.7596 9.93676 98.5402 9.18544 99.711 9.18544Z" fill="black"/>
<path fill-rule="evenodd" clip-rule="evenodd" d="M110.524 22.9998C108.688 22.9998 107.201 21.5216 107.201 19.6981V6.34778C107.201 6.22834 107.298 6.13152 107.418 6.13152H110.203C110.404 6.13152 110.567 6.29319 110.567 6.49261V7.53721C111.128 6.49506 112.445 5.88916 113.908 5.88916C115.421 5.88916 116.714 6.44659 117.787 7.53721C118.884 8.62783 119.421 10.0335 119.421 11.7543C119.421 13.5235 118.884 14.9534 117.787 16.0441C116.714 17.1347 115.421 17.6921 113.908 17.6921C112.445 17.6921 111.128 17.062 110.567 16.0683V22.9569C110.567 22.9806 110.547 22.9998 110.524 22.9998ZM113.274 9.08831C111.811 9.08831 110.64 10.2516 110.64 11.827C110.64 13.475 111.811 14.5172 113.274 14.5172C114.738 14.5172 115.909 13.4023 115.909 11.827C115.909 10.2032 114.738 9.08831 113.274 9.08831Z" fill="black"/>
<path d="M12.4833 12.4267C12.6081 12.2691 12.8349 12.2267 13.0006 12.341L15.1227 13.8063C15.2844 13.9179 15.3279 14.1379 15.2122 14.2963C13.7845 16.2513 11.4426 17.4567 8.74508 17.4567C6.49171 17.4567 4.60624 16.68 3.06567 15.1035C1.5481 13.5271 0.789307 11.6309 0.789307 9.3919C0.789307 7.13009 1.5481 5.23382 3.06567 3.6574C4.60624 2.08099 6.49171 1.3042 8.74508 1.3042C11.3699 1.3042 13.7033 2.48265 15.1319 4.34787C15.2533 4.50629 15.2107 4.73123 15.0457 4.84418L12.9084 6.30754C12.7427 6.42101 12.5166 6.37797 12.393 6.22013C11.4728 5.04473 10.2568 4.45704 8.74508 4.45704C7.43445 4.45704 6.35375 4.93681 5.48 5.89637C4.60624 6.83308 4.16936 7.99826 4.16936 9.3919C4.16936 10.7627 4.60624 11.9279 5.48 12.8874C6.35375 13.8241 7.43445 14.3039 8.74508 14.3039C10.2518 14.3039 11.5822 13.5644 12.4833 12.4267Z" fill="black"/>
</g>
<defs>
<clipPath id="clip0_682_243">
<rect width="120" height="23" fill="white"/>
</clipPath>
</defs>
</svg>
